<?xml version="1.0" encoding="UTF-8" standalone="no"?>
<svg width="800" height="520" xmlns="http://www.w3.org/2000/svg">
  <!-- 배경 -->
  <rect width="800" height="520" fill="#f8f9fa" rx="10" ry="10"/>
  
  <!-- 제목 -->
  <text x="400" y="40" font-family="Arial" font-size="24" font-weight="bold" text-anchor="middle" fill="#333333">임베딩 모델 비교: OpenAI vs Hugging Face</text>
  
  <!-- 설명 텍스트 -->
  <text x="400" y="70" font-family="Arial" font-size="14" text-anchor="middle" fill="#555555">문서와 질문을 벡터 공간으로 변환하는 과정과 모델별 차이</text>
  
  <!-- 왼쪽: OpenAI 임베딩 -->
  <g transform="translate(50, 120)">
    <!-- 제목 -->
    <text x="150" y="0" font-family="Arial" font-size="18" font-weight="bold" text-anchor="middle" fill="#2069e0">OpenAI 임베딩 모델</text>
    <text x="150" y="25" font-family="Arial" font-size="14" text-anchor="middle" fill="#666666">text-embedding-3-small</text>
    
    <!-- 입력 텍스트 -->
    <rect x="30" y="50" width="240" height="40" rx="5" ry="5" fill="#e9f0fd" stroke="#2069e0" stroke-width="1"/>
    <text x="150" y="75" font-family="Arial" font-size="14" text-anchor="middle">"퇴직연금제도란 무엇인가요?"</text>
    
    <!-- 화살표 -->
    <path d="M150,90 L150,120" stroke="#333333" stroke-width="2" fill="none" marker-end="url(#arrow)"/>
    
    <!-- 토큰화 박스 -->
    <rect x="0" y="120" width="300" height="60" rx="5" ry="5" fill="#e1f5fe" stroke="#0288d1" stroke-width="1"/>
    <text x="150" y="145" font-family="Arial" font-size="14" font-weight="bold" text-anchor="middle">토큰화 (Tokenization)</text>
    <text x="150" y="165" font-family="Arial" font-size="12" text-anchor="middle">["퇴직", "연금", "제도", "란", "무엇", "인가요", "?"]</text>
    
    <!-- 화살표 -->
    <path d="M150,180 L150,210" stroke="#333333" stroke-width="2" fill="none" marker-end="url(#arrow)"/>
    
    <!-- 임베딩 변환 박스 -->
    <rect x="0" y="210" width="300" height="60" rx="5" ry="5" fill="#e3f2fd" stroke="#1565c0" stroke-width="1"/>
    <text x="150" y="235" font-family="Arial" font-size="14" font-weight="bold" text-anchor="middle">임베딩 변환 (Neural Network)</text>
    <text x="150" y="255" font-family="Arial" font-size="12" text-anchor="middle">다양한 레이어를 통한 고차원 변환</text>
    
    <!-- 화살표 -->
    <path d="M150,270 L150,300" stroke="#333333" stroke-width="2" fill="none" marker-end="url(#arrow)"/>
    
    <!-- 벡터 결과 -->
    <rect x="0" y="300" width="300" height="80" rx="5" ry="5" fill="#bbdefb" stroke="#0d47a1" stroke-width="1"/>
    <text x="150" y="325" font-family="Arial" font-size="14" font-weight="bold" text-anchor="middle">1536차원 벡터</text>
    <text x="150" y="345" font-family="Arial" font-size="12" text-anchor="middle">[0.12, -0.34, 0.56, 0.78, -0.91, ...]</text>
    <text x="150" y="365" font-family="Arial" font-size="12" text-anchor="middle">한국어에 최적화된 고차원 표현</text>
    
    <!-- 성능 배지 -->
    <!-- <rect x="210" y="0" width="80" height="24" rx="12" ry="12" fill="#4CAF50" stroke="none"/>
    <text x="250" y="16" font-family="Arial" font-size="12" font-weight="bold" text-anchor="middle" fill="white">성능 95%</text> -->
  </g>
  
  <!-- 오른쪽: Hugging Face 임베딩 -->
  <g transform="translate(450, 120)">
    <!-- 제목 -->
    <text x="150" y="0" font-family="Arial" font-size="18" font-weight="bold" text-anchor="middle" fill="#ff5722">Hugging Face 임베딩 모델</text>
    <text x="150" y="25" font-family="Arial" font-size="14" text-anchor="middle" fill="#666666">sentence-transformers/all-MiniLM-L6-v2</text>
    
    <!-- 입력 텍스트 -->
    <rect x="30" y="50" width="240" height="40" rx="5" ry="5" fill="#fbe9e7" stroke="#ff5722" stroke-width="1"/>
    <text x="150" y="75" font-family="Arial" font-size="14" text-anchor="middle">"퇴직연금제도란 무엇인가요?"</text>
    
    <!-- 화살표 -->
    <path d="M150,90 L150,120" stroke="#333333" stroke-width="2" fill="none" marker-end="url(#arrow)"/>
    
    <!-- 토큰화 박스 -->
    <rect x="0" y="120" width="300" height="60" rx="5" ry="5" fill="#ffebee" stroke="#c62828" stroke-width="1"/>
    <text x="150" y="145" font-family="Arial" font-size="14" font-weight="bold" text-anchor="middle">토큰화 (Tokenization)</text>
    <text x="150" y="165" font-family="Arial" font-size="12" text-anchor="middle">["퇴직", "##연금", "##제도", "##란", "무엇", "인가요", "?"]</text>
    
    <!-- 화살표 -->
    <path d="M150,180 L150,210" stroke="#333333" stroke-width="2" fill="none" marker-end="url(#arrow)"/>
    
    <!-- 임베딩 변환 박스 -->
    <rect x="0" y="210" width="300" height="60" rx="5" ry="5" fill="#ffcdd2" stroke="#b71c1c" stroke-width="1"/>
    <text x="150" y="235" font-family="Arial" font-size="14" font-weight="bold" text-anchor="middle">임베딩 변환 (Transformer)</text>
    <text x="150" y="255" font-family="Arial" font-size="12" text-anchor="middle">경량화된 모델 구조</text>
    
    <!-- 화살표 -->
    <path d="M150,270 L150,300" stroke="#333333" stroke-width="2" fill="none" marker-end="url(#arrow)"/>
    
    <!-- 벡터 결과 -->
    <rect x="0" y="300" width="300" height="80" rx="5" ry="5" fill="#ef9a9a" stroke="#b71c1c" stroke-width="1"/>
    <text x="150" y="325" font-family="Arial" font-size="14" font-weight="bold" text-anchor="middle">384차원 벡터</text>
    <text x="150" y="345" font-family="Arial" font-size="12" text-anchor="middle">[0.02, -0.15, 0.26, 0.31, -0.42, ...]</text>
    <text x="150" y="365" font-family="Arial" font-size="12" text-anchor="middle">영어 중심의 저차원 표현</text>
    
    <!-- 성능 배지 -->
    <!-- <rect x="210" y="0" width="80" height="24" rx="12" ry="12" fill="#FF9800" stroke="none"/>
    <text x="250" y="16" font-family="Arial" font-size="12" font-weight="bold" text-anchor="middle" fill="white">성능 70%</text> -->
  </g>
  
  <!-- 비교 섹션 -->
  <!-- <g transform="translate(50, 420)">
    <rect x="0" y="0" width="700" height="60" rx="5" ry="5" fill="#e8eaf6" stroke="#3f51b5" stroke-width="1"/>
    <text x="350" y="25" font-family="Arial" font-size="16" font-weight="bold" text-anchor="middle" fill="#3f51b5">차원 수의 중요성</text>
    <text x="350" y="45" font-family="Arial" font-size="14" text-anchor="middle" fill="#333333">높은 차원 수(1536)는 더 많은 의미적 정보를 저장할 수 있어 한국어 문서 검색에 유리합니다.</text>
  </g> -->
  
  <!-- 화살표 마커 정의 -->
  <defs>
    <marker id="arrow" markerWidth="10" markerHeight="10" refX="9" refY="3" orient="auto" markerUnits="strokeWidth">
      <path d="M0,0 L0,6 L9,3 z" fill="#333333" />
    </marker>
  </defs>
</svg> 